<svg width="24" height="24" viewBox="0 0 24 24" fill="none" xmlns="http://www.w3.org/2000/svg">
<g clip-path="url(#clip0_1016_24196)">
<path d="M6 13.5C6 13.8978 5.84196 14.2794 5.56066 14.5607C5.27936 14.842 4.89782 15 4.5 15C4.10218 15 3.72064 14.842 3.43934 14.5607C3.15804 14.2794 3 13.8978 3 13.5C3 13.1022 3.15804 12.7206 3.43934 12.4393C3.72064 12.158 4.10218 12 4.5 12C4.89782 12 5.27936 12.158 5.56066 12.4393C5.84196 12.7206 6 13.1022 6 13.5ZM21 13.5C21 13.8978 20.842 14.2794 20.5607 14.5607C20.2794 14.842 19.8978 15 19.5 15C19.1022 15 18.7206 14.842 18.4393 14.5607C18.158 14.2794 18 13.8978 18 13.5C18 13.1022 18.158 12.7206 18.4393 12.4393C18.7206 12.158 19.1022 12 19.5 12C19.8978 12 20.2794 12.158 20.5607 12.4393C20.842 12.7206 21 13.1022 21 13.5ZM9 12C8.60218 12 8.22064 12.158 7.93934 12.4393C7.65804 12.7206 7.5 13.1022 7.5 13.5C7.5 13.8978 7.65804 14.2794 7.93934 14.5607C8.22064 14.842 8.60218 15 9 15H15C15.3978 15 15.7794 14.842 16.0607 14.5607C16.342 14.2794 16.5 13.8978 16.5 13.5C16.5 13.1022 16.342 12.7206 16.0607 12.4393C15.7794 12.158 15.3978 12 15 12H9ZM7.293 6.414L5.859 9.285C5.80037 9.40598 5.77465 9.54028 5.78445 9.67436C5.79424 9.80844 5.83919 9.93758 5.91478 10.0488C5.99037 10.1599 6.09392 10.2492 6.21501 10.3076C6.33609 10.3661 6.47044 10.3915 6.6045 10.3815C7.9695 10.272 10.1295 10.1265 12 10.1265C13.8705 10.1265 16.032 10.272 17.3955 10.3815C17.5296 10.3915 17.6639 10.3661 17.785 10.3076C17.9061 10.2492 18.0096 10.1599 18.0852 10.0488C18.1608 9.93758 18.2058 9.80844 18.2156 9.67436C18.2253 9.54028 18.1996 9.40598 18.141 9.285L16.707 6.4155C16.6449 6.2908 16.5492 6.18587 16.4308 6.11248C16.3124 6.03909 16.1758 6.00014 16.0365 6H7.9635C7.82433 6 7.68791 6.03873 7.5695 6.11185C7.45108 6.18496 7.35535 6.28958 7.293 6.414Z" fill="black"/>
<path d="M3.77996 5.2725C4.06932 4.5975 4.55051 4.02232 5.16382 3.61834C5.77713 3.21435 6.49556 2.99935 7.22997 3H16.773C18.273 3 19.629 3.894 20.22 5.2725L21.408 8.0445C21.5205 8.307 21.723 8.523 21.978 8.6505C22.728 9.0255 23.2605 9.723 23.4255 10.5435L23.928 13.062C23.978 13.304 24.0025 13.549 24.0015 13.797V14.4165C24.0015 15.6375 23.4165 16.731 22.5015 17.412V20.25C22.5015 20.4489 22.4224 20.6397 22.2818 20.7803C22.1411 20.921 21.9504 21 21.7515 21H18.7515C18.5526 21 18.3618 20.921 18.2211 20.7803C18.0805 20.6397 18.0015 20.4489 18.0015 20.25V18.243C16.0635 18.315 13.884 18.375 12.0015 18.375C10.119 18.375 7.93947 18.315 6.00146 18.243V20.25C6.00146 20.4489 5.92245 20.6397 5.7818 20.7803C5.64114 20.921 5.45038 21 5.25146 21H2.25146C2.05255 21 1.86179 20.921 1.72113 20.7803C1.58048 20.6397 1.50146 20.4489 1.50146 20.25V17.412C0.586465 16.731 0.00146484 15.6375 0.00146484 14.4165V13.797C0.00171659 13.5502 0.026336 13.304 0.0749649 13.062L0.577465 10.542C0.742465 9.723 1.27496 9.024 2.02346 8.6505C2.28021 8.52322 2.48293 8.30826 2.59496 8.0445L3.78297 5.2725H3.77996ZM7.22997 4.5C6.78941 4.50003 6.35855 4.62939 5.99084 4.87204C5.62313 5.11469 5.33475 5.45996 5.16146 5.865L3.97346 8.6355C3.7215 9.22508 3.26794 9.70576 2.69396 9.9915C2.52865 10.0734 2.38446 10.1924 2.27259 10.3391C2.16073 10.4858 2.0842 10.6564 2.04896 10.8375L1.54496 13.356C1.51549 13.5012 1.50041 13.6489 1.49996 13.797V14.4165C1.49996 15.6105 2.42997 16.5885 3.61196 16.6425C5.94446 16.7475 9.29097 16.875 12 16.875C14.709 16.875 18.0555 16.749 20.388 16.6425C20.9589 16.6147 21.497 16.3678 21.8905 15.9531C22.2839 15.5385 22.5022 14.9881 22.5 14.4165V13.797C22.5 13.649 22.485 13.502 22.455 13.356L21.9525 10.836C21.917 10.6552 21.8404 10.4849 21.7285 10.3385C21.6167 10.192 21.4726 10.0733 21.3075 9.9915C20.7335 9.70576 20.2799 9.22508 20.028 8.6355L18.84 5.8635C18.6664 5.4585 18.3776 5.11339 18.0097 4.871C17.6417 4.62861 17.2106 4.49961 16.77 4.5H7.22997Z" fill="black"/>
</g>
<defs>
<clipPath id="clip0_1016_24196">
<rect width="24" height="24" fill="white"/>
</clipPath>
</defs>
</svg>
